<?xml version="1.0" standalone="no"?>
<!DOCTYPE svg PUBLIC "-//W3C//DTD SVG 20010904//EN"
 "http://www.w3.org/TR/2001/REC-SVG-20010904/DTD/svg10.dtd">
<svg version="1.0" xmlns="http://www.w3.org/2000/svg"
 width="1119.000000pt" height="1119.000000pt" viewBox="0 0 1119.000000 1119.000000"
 preserveAspectRatio="xMidYMid meet">
<metadata>
Created by potrace 1.14, written by Peter Selinger 2001-2017
</metadata>
<g transform="translate(0.000000,1119.000000) scale(0.100000,-0.100000)"
fill="#000000" stroke="none">
<path d="M3762 8959 c-35 -16 -67 -29 -73 -29 -5 0 -9 -4 -9 -8 0 -4 -10 -8
-22 -9 -11 -1 -25 -8 -29 -15 -5 -7 -9 -9 -9 -4 0 5 -6 3 -13 -3 -8 -6 -22
-12 -33 -14 -10 -2 -37 -12 -59 -22 -22 -11 -42 -20 -45 -21 -5 -1 -50 -18
-80 -31 -8 -3 -17 -7 -20 -8 -3 -1 -12 -5 -20 -8 -8 -4 -58 -23 -110 -43 -52
-20 -106 -41 -120 -47 -14 -5 -27 -11 -30 -11 -3 -1 -11 -5 -17 -9 -7 -5 -13
-6 -13 -2 0 3 -18 -4 -40 -15 -22 -11 -40 -18 -40 -14 0 4 -6 2 -12 -3 -7 -6
-31 -16 -53 -23 -22 -7 -44 -16 -50 -20 -5 -4 -28 -13 -50 -20 -22 -7 -60 -21
-85 -32 -24 -11 -49 -21 -55 -22 -5 -1 -21 -8 -35 -16 -14 -7 -27 -13 -30 -13
-9 1 -158 -54 -225 -82 -16 -7 -163 -63 -325 -125 -162 -62 -308 -118 -325
-125 -38 -16 -98 -39 -105 -41 -3 0 -18 -6 -33 -12 -16 -7 -30 -12 -31 -12 -2
0 -21 -8 -42 -17 -22 -9 -43 -18 -49 -19 -29 -7 -111 -40 -116 -47 -3 -5 -8
-7 -10 -6 -2 2 -58 -18 -124 -43 -66 -25 -199 -76 -295 -113 -286 -109 -287
-109 -285 -143 1 -15 -1 -31 -4 -37 -3 -5 -6 -16 -7 -25 -1 -8 -4 -37 -8 -65
-3 -27 -8 -61 -11 -75 -3 -14 -7 -38 -10 -55 -9 -69 -22 -147 -29 -185 -3 -14
-8 -42 -11 -62 -14 -102 -20 -140 -40 -258 -4 -19 -8 -51 -11 -70 -2 -19 -6
-46 -9 -60 -10 -52 -21 -124 -30 -190 -2 -19 -7 -46 -10 -60 -3 -14 -8 -45
-11 -70 -7 -59 -11 -85 -13 -85 -1 0 -4 -13 -6 -30 -7 -59 -15 -112 -45 -295
-17 -102 -33 -201 -36 -220 -3 -19 -7 -48 -10 -65 -2 -16 -7 -43 -10 -60 -4
-16 -8 -43 -9 -60 -2 -16 -6 -39 -8 -51 -7 -29 -20 -124 -20 -151 -1 -13 -4
-23 -8 -23 -3 0 -6 -10 -5 -22 1 -13 -1 -36 -5 -53 -4 -16 -10 -50 -13 -75 -4
-25 -9 -58 -12 -75 -3 -16 -7 -43 -9 -60 -2 -16 -7 -45 -10 -62 -3 -18 -7 -47
-9 -64 -3 -17 -7 -42 -10 -57 -3 -15 -8 -45 -11 -67 -3 -22 -12 -78 -20 -125
-7 -47 -16 -103 -20 -125 -3 -22 -12 -83 -21 -135 -8 -52 -17 -111 -20 -130
-3 -19 -7 -39 -7 -44 -2 -10 105 -102 287 -245 11 -9 32 -28 48 -43 15 -14 28
-23 28 -20 0 4 4 3 8 -3 4 -5 54 -48 112 -94 58 -47 107 -87 110 -91 3 -3 21
-17 42 -32 20 -15 42 -33 50 -41 7 -7 49 -42 93 -77 44 -36 82 -68 83 -72 2
-5 8 -8 14 -8 6 0 16 -6 22 -14 6 -7 94 -80 196 -162 102 -82 191 -154 198
-161 8 -7 30 -26 50 -41 21 -15 42 -31 48 -37 6 -5 28 -23 49 -40 20 -16 48
-40 61 -53 13 -13 24 -20 24 -16 0 4 8 -2 18 -12 9 -11 51 -46 92 -78 76 -61
89 -71 125 -103 12 -10 36 -30 55 -44 19 -15 46 -37 60 -49 14 -12 38 -31 54
-43 15 -12 39 -32 52 -44 12 -13 27 -23 33 -23 5 0 11 -3 13 -8 2 -4 39 -36
83 -72 44 -35 82 -67 85 -70 3 -3 25 -21 50 -40 25 -19 53 -43 63 -54 9 -10
17 -15 17 -11 0 5 6 2 13 -6 6 -9 48 -45 92 -80 110 -88 116 -93 129 -104 6
-6 32 -27 58 -47 l48 -36 122 48 c68 26 132 51 143 55 11 4 26 9 33 11 7 1 25
10 39 19 17 12 23 13 17 4 -6 -12 -5 -12 8 -1 8 6 39 21 69 31 30 11 111 42
181 69 70 27 130 47 133 44 3 -3 5 0 5 6 0 7 6 12 14 12 7 0 31 8 52 17 22 9
41 17 44 18 7 2 20 7 223 86 98 38 185 69 193 69 8 0 14 4 14 10 0 5 3 9 8 8
8 -2 45 9 87 27 28 12 220 86 420 162 150 57 248 95 280 108 74 31 115 44 115
37 0 -4 4 -2 8 5 6 9 59 33 107 47 6 2 23 8 38 14 16 7 31 12 34 12 3 0 19 6
36 14 18 7 50 20 72 29 22 8 65 25 95 37 92 38 214 82 228 83 6 0 12 4 12 9 0
4 7 8 15 8 8 0 34 9 58 19 78 35 177 71 195 71 9 0 31 -12 47 -26 59 -50 71
-59 115 -94 25 -19 47 -37 50 -40 21 -23 171 -140 180 -140 5 0 10 -4 10 -8 0
-5 41 -41 92 -82 117 -93 126 -101 154 -125 12 -11 35 -29 50 -40 15 -11 32
-24 38 -30 6 -5 29 -23 51 -39 22 -17 44 -36 48 -43 4 -7 15 -13 23 -13 8 0
12 -4 9 -10 -3 -5 -1 -10 4 -10 10 0 25 -11 65 -45 96 -83 135 -115 140 -115
3 0 14 -8 24 -18 23 -22 106 -91 191 -160 18 -15 41 -34 50 -42 9 -8 44 -36
77 -62 l61 -47 79 31 c43 16 88 34 99 39 26 11 78 32 88 34 4 2 9 4 12 5 3 1
8 3 13 4 4 1 17 7 30 14 12 7 22 10 22 7 0 -3 18 4 40 15 22 11 40 18 40 14 0
-4 7 0 17 7 9 8 18 13 19 12 5 -3 26 4 107 38 37 16 68 28 70 28 1 0 16 5 32
11 17 6 47 17 68 23 20 7 37 15 37 19 0 5 7 8 15 8 9 0 43 12 78 26 34 14 67
27 72 28 6 2 19 7 30 11 11 4 49 19 85 32 36 14 79 31 97 39 17 8 33 14 36 14
3 0 18 5 34 12 15 6 30 12 33 13 3 1 16 6 30 12 14 6 50 19 80 29 30 11 58 24
62 29 4 6 8 7 8 3 0 -5 59 17 235 87 11 4 25 9 30 10 10 3 89 34 150 60 17 7
39 15 50 17 11 1 22 6 25 9 3 3 34 15 70 28 36 12 80 29 97 37 50 23 113 44
113 38 0 -3 7 2 16 10 8 9 22 16 30 16 9 0 25 5 37 12 12 7 27 13 32 14 16 3
328 124 348 135 10 5 22 7 27 4 4 -3 10 -1 12 4 3 9 110 51 136 53 6 1 12 5
12 10 0 4 8 8 18 8 10 0 22 3 26 7 3 4 12 8 19 9 15 2 137 49 194 75 24 10 49
19 57 19 17 0 28 15 32 44 1 12 10 62 19 111 19 106 22 124 30 189 3 27 8 52
10 55 1 3 6 31 9 61 3 30 8 66 11 80 6 25 9 43 20 123 3 23 8 49 10 57 2 8 7
35 10 60 3 25 8 59 11 75 10 65 13 82 19 125 3 25 8 52 10 60 3 8 7 33 10 55
8 65 13 95 30 200 9 55 18 111 20 125 6 39 16 103 21 130 2 14 7 40 9 59 7 43
14 89 20 121 3 14 7 45 10 70 3 25 8 53 11 63 3 10 8 37 10 60 5 52 11 92 14
92 1 0 3 16 5 35 2 19 4 35 5 35 1 0 3 14 5 30 2 17 7 46 10 65 4 19 9 51 11
70 2 19 7 51 10 70 9 54 12 72 19 115 3 22 7 47 10 55 2 8 7 38 11 65 3 28 7
57 9 65 2 15 12 76 22 135 3 17 6 44 9 60 2 17 5 41 8 55 6 32 17 96 22 135 2
17 7 46 10 65 2 19 6 46 7 60 2 14 5 30 8 35 4 6 5 20 4 33 -1 12 1 22 5 22 3
0 5 12 4 28 -1 15 1 32 5 37 3 6 6 22 7 38 1 15 2 28 3 30 2 1 4 14 6 29 3 22
-8 35 -78 91 -45 36 -95 76 -112 90 -16 14 -61 50 -100 81 -38 32 -79 65 -90
74 -11 9 -42 35 -70 56 -27 22 -55 45 -61 51 -6 5 -23 19 -39 30 -15 11 -35
27 -44 36 -12 12 -122 102 -186 152 -5 4 -23 19 -40 33 -16 14 -57 46 -90 72
-33 25 -64 51 -70 57 -5 7 -41 36 -80 66 -38 30 -79 62 -90 71 -46 40 -107 90
-230 189 -176 142 -176 141 -202 167 -13 12 -26 22 -29 22 -3 0 -31 21 -62 48
-31 26 -65 54 -75 62 -10 8 -27 22 -37 30 -10 8 -33 27 -52 42 -88 70 -329
267 -343 282 -9 9 -19 16 -23 16 -4 0 -23 15 -43 33 -19 17 -51 44 -70 58 -18
15 -44 35 -56 45 -46 41 -63 54 -68 54 -2 0 -15 10 -28 23 -31 28 -64 55 -136
112 l-58 45 -44 -18 c-63 -27 -259 -104 -273 -107 -6 -1 -27 -9 -46 -17 -50
-21 -73 -31 -85 -33 -20 -5 -201 -76 -228 -91 -16 -7 -32 -14 -37 -14 -4 0
-25 -8 -46 -17 -22 -9 -43 -17 -49 -18 -5 -1 -19 -5 -30 -10 -44 -18 -292
-114 -330 -126 -22 -8 -42 -16 -45 -19 -4 -5 -88 -34 -100 -35 -3 -1 -22 -9
-42 -19 -20 -9 -42 -19 -50 -20 -7 -2 -26 -9 -43 -16 -16 -7 -34 -14 -40 -15
-9 -3 -124 -47 -180 -70 -11 -5 -22 -9 -25 -10 -26 -9 -69 -27 -84 -36 -14 -8
-16 -8 -10 3 4 7 -2 4 -14 -6 -12 -11 -22 -16 -22 -12 0 4 -10 1 -22 -6 -13
-7 -25 -13 -28 -13 -5 0 -189 -70 -225 -85 -11 -4 -67 -26 -125 -49 -58 -22
-118 -46 -135 -52 -16 -7 -36 -11 -43 -10 -7 1 -15 -5 -18 -13 -3 -9 -10 -14
-14 -11 -7 4 -50 -10 -105 -35 -11 -5 -58 -23 -105 -40 -47 -17 -98 -37 -113
-45 -16 -8 -32 -15 -37 -15 -4 0 -25 -8 -46 -17 -22 -9 -43 -17 -49 -18 -5 -1
-19 -5 -30 -10 -157 -66 -180 -72 -205 -56 -14 9 -32 23 -40 31 -9 8 -35 31
-59 50 -23 19 -52 43 -64 53 -12 10 -43 35 -69 55 -27 20 -48 40 -48 44 0 4
-6 8 -13 8 -7 0 -19 9 -27 20 -8 11 -20 20 -27 20 -7 0 -13 4 -13 9 0 4 -17
20 -37 34 -21 14 -52 38 -70 54 -56 50 -73 63 -83 63 -6 0 -10 3 -10 8 0 4
-28 30 -62 57 -72 58 -114 93 -140 118 -10 9 -20 17 -23 17 -3 0 -13 8 -23 18
-11 9 -40 34 -65 55 -30 24 -44 43 -41 52 4 8 1 15 -4 15 -6 0 -17 6 -24 13
-7 7 -67 53 -133 102 -66 49 -122 92 -125 95 -3 3 -27 22 -55 40 -27 19 -51
37 -53 42 -2 4 -8 8 -14 8 -6 0 -21 11 -34 26 -13 14 -24 22 -24 19 0 -3 -9 2
-19 12 -11 10 -32 26 -48 35 -28 16 -31 15 -91 -13z"/>
</g>
</svg>
